<mxfile host="app.diagrams.net" modified="2023-04-13T11:49:04.886Z" agent="Mozilla/5.0 (Windows NT 10.0; Win64; x64) AppleWebKit/537.36 (KHTML, like Gecko) Chrome/111.0.0.0 Safari/537.36" version="21.1.5" etag="P57avCWAk8PnXUUdKHfJ" type="device">
  <diagram id="SVjnh7aVOmCQIF9GNSlV" name="페이지-1">
    <mxGraphModel dx="1434" dy="833" grid="1" gridSize="10" guides="1" tooltips="1" connect="1" arrows="1" fold="1" page="1" pageScale="1" pageWidth="827" pageHeight="1169" math="0" shadow="0">
      <root>
        <mxCell id="0" />
        <mxCell id="1" parent="0" />
        <mxCell id="mZgvwVBIC-NFh9PzwcEK-1" value="&amp;lt;Abstract&amp;gt;&lt;br&gt;Class MonsterFactory" style="swimlane;fontStyle=0;childLayout=stackLayout;horizontal=1;startSize=26;fillColor=none;horizontalStack=0;resizeParent=1;resizeParentMax=0;resizeLast=0;collapsible=1;marginBottom=0;whiteSpace=wrap;html=1;" vertex="1" parent="1">
          <mxGeometry x="280" y="140" width="250" height="70" as="geometry" />
        </mxCell>
        <mxCell id="mZgvwVBIC-NFh9PzwcEK-5" value="+ Spawn(index : int) : GameObject&lt;br&gt;- Create(index : int) : Monster" style="text;strokeColor=none;fillColor=none;align=left;verticalAlign=top;spacingLeft=4;spacingRight=4;overflow=hidden;rotatable=0;points=[[0,0.5],[1,0.5]];portConstraint=eastwest;whiteSpace=wrap;html=1;" vertex="1" parent="mZgvwVBIC-NFh9PzwcEK-1">
          <mxGeometry y="26" width="250" height="44" as="geometry" />
        </mxCell>
        <mxCell id="mZgvwVBIC-NFh9PzwcEK-17" value="Class TestMonsterFactory : MonsterFactory" style="swimlane;fontStyle=0;childLayout=stackLayout;horizontal=1;startSize=26;fillColor=none;horizontalStack=0;resizeParent=1;resizeParentMax=0;resizeLast=0;collapsible=1;marginBottom=0;whiteSpace=wrap;html=1;" vertex="1" parent="1">
          <mxGeometry x="280" y="290" width="250" height="70" as="geometry" />
        </mxCell>
        <mxCell id="mZgvwVBIC-NFh9PzwcEK-18" value="+ Spawn(index : int) : GameObject&lt;br&gt;- Create(index : int) : Monster" style="text;strokeColor=none;fillColor=none;align=left;verticalAlign=top;spacingLeft=4;spacingRight=4;overflow=hidden;rotatable=0;points=[[0,0.5],[1,0.5]];portConstraint=eastwest;whiteSpace=wrap;html=1;" vertex="1" parent="mZgvwVBIC-NFh9PzwcEK-17">
          <mxGeometry y="26" width="250" height="44" as="geometry" />
        </mxCell>
        <mxCell id="mZgvwVBIC-NFh9PzwcEK-23" value="" style="endArrow=block;endSize=10;endFill=0;shadow=0;strokeWidth=1;rounded=0;edgeStyle=elbowEdgeStyle;elbow=vertical;entryX=0.5;entryY=1;entryDx=0;entryDy=0;exitX=0.5;exitY=0;exitDx=0;exitDy=0;" edge="1" parent="1" source="mZgvwVBIC-NFh9PzwcEK-27" target="mZgvwVBIC-NFh9PzwcEK-25">
          <mxGeometry width="160" relative="1" as="geometry">
            <mxPoint x="350" y="910" as="sourcePoint" />
            <mxPoint x="450" y="808" as="targetPoint" />
          </mxGeometry>
        </mxCell>
        <mxCell id="mZgvwVBIC-NFh9PzwcEK-24" style="edgeStyle=orthogonalEdgeStyle;rounded=0;orthogonalLoop=1;jettySize=auto;html=1;" edge="1" parent="1" source="mZgvwVBIC-NFh9PzwcEK-25" target="mZgvwVBIC-NFh9PzwcEK-38">
          <mxGeometry relative="1" as="geometry">
            <Array as="points">
              <mxPoint x="230" y="710" />
              <mxPoint x="230" y="453" />
            </Array>
          </mxGeometry>
        </mxCell>
        <mxCell id="mZgvwVBIC-NFh9PzwcEK-25" value="&lt;p style=&quot;margin:0px;margin-top:4px;text-align:center;&quot;&gt;&lt;i&gt;&amp;lt;&amp;lt;abstract&amp;gt;&amp;gt;&lt;/i&gt;&lt;br&gt;&lt;b&gt;Class Stage&lt;/b&gt;&lt;/p&gt;&lt;hr size=&quot;1&quot;&gt;&lt;p style=&quot;margin:0px;margin-left:4px;&quot;&gt;&lt;/p&gt;&lt;p style=&quot;margin:0px;margin-left:4px;&quot;&gt;+ Setup() : void&lt;br&gt;+ Update() : void&lt;/p&gt;" style="verticalAlign=top;align=left;overflow=fill;fontSize=12;fontFamily=Helvetica;html=1;whiteSpace=wrap;" vertex="1" parent="1">
          <mxGeometry x="374" y="670" width="190" height="80" as="geometry" />
        </mxCell>
        <mxCell id="mZgvwVBIC-NFh9PzwcEK-26" value="" style="endArrow=block;endSize=10;endFill=0;shadow=0;strokeWidth=1;rounded=0;edgeStyle=elbowEdgeStyle;elbow=vertical;entryX=0.5;entryY=1;entryDx=0;entryDy=0;exitX=0.5;exitY=0;exitDx=0;exitDy=0;" edge="1" parent="1" source="mZgvwVBIC-NFh9PzwcEK-31" target="mZgvwVBIC-NFh9PzwcEK-25">
          <mxGeometry width="160" relative="1" as="geometry">
            <mxPoint x="560" y="910" as="sourcePoint" />
            <mxPoint x="465" y="820" as="targetPoint" />
          </mxGeometry>
        </mxCell>
        <mxCell id="mZgvwVBIC-NFh9PzwcEK-27" value="Class Town : Stage" style="swimlane;fontStyle=0;childLayout=stackLayout;horizontal=1;startSize=26;fillColor=none;horizontalStack=0;resizeParent=1;resizeParentMax=0;resizeLast=0;collapsible=1;marginBottom=0;whiteSpace=wrap;html=1;" vertex="1" parent="1">
          <mxGeometry x="230" y="910" width="190" height="150" as="geometry" />
        </mxCell>
        <mxCell id="mZgvwVBIC-NFh9PzwcEK-28" value="- monsterSpawnPos : Transform&lt;br&gt;- factory : TestMonsterFactory" style="text;strokeColor=none;fillColor=none;align=left;verticalAlign=top;spacingLeft=4;spacingRight=4;overflow=hidden;rotatable=0;points=[[0,0.5],[1,0.5]];portConstraint=eastwest;whiteSpace=wrap;html=1;" vertex="1" parent="mZgvwVBIC-NFh9PzwcEK-27">
          <mxGeometry y="26" width="190" height="44" as="geometry" />
        </mxCell>
        <mxCell id="mZgvwVBIC-NFh9PzwcEK-29" value="" style="line;strokeWidth=1;fillColor=none;align=left;verticalAlign=middle;spacingTop=-1;spacingLeft=3;spacingRight=3;rotatable=0;labelPosition=right;points=[];portConstraint=eastwest;strokeColor=inherit;" vertex="1" parent="mZgvwVBIC-NFh9PzwcEK-27">
          <mxGeometry y="70" width="190" height="20" as="geometry" />
        </mxCell>
        <mxCell id="mZgvwVBIC-NFh9PzwcEK-30" value="+ Setup() : void&lt;br style=&quot;border-color: var(--border-color);&quot;&gt;+ Update() : void" style="text;strokeColor=none;fillColor=none;align=left;verticalAlign=top;spacingLeft=4;spacingRight=4;overflow=hidden;rotatable=0;points=[[0,0.5],[1,0.5]];portConstraint=eastwest;whiteSpace=wrap;html=1;" vertex="1" parent="mZgvwVBIC-NFh9PzwcEK-27">
          <mxGeometry y="90" width="190" height="60" as="geometry" />
        </mxCell>
        <mxCell id="mZgvwVBIC-NFh9PzwcEK-31" value="Class Forest : Stage" style="swimlane;fontStyle=0;childLayout=stackLayout;horizontal=1;startSize=26;fillColor=none;horizontalStack=0;resizeParent=1;resizeParentMax=0;resizeLast=0;collapsible=1;marginBottom=0;whiteSpace=wrap;html=1;" vertex="1" parent="1">
          <mxGeometry x="520" y="910" width="190" height="150" as="geometry" />
        </mxCell>
        <mxCell id="mZgvwVBIC-NFh9PzwcEK-32" value="- monsterSpawnPos : Transform&lt;br&gt;- factory : TestMonsterFactory" style="text;strokeColor=none;fillColor=none;align=left;verticalAlign=top;spacingLeft=4;spacingRight=4;overflow=hidden;rotatable=0;points=[[0,0.5],[1,0.5]];portConstraint=eastwest;whiteSpace=wrap;html=1;" vertex="1" parent="mZgvwVBIC-NFh9PzwcEK-31">
          <mxGeometry y="26" width="190" height="44" as="geometry" />
        </mxCell>
        <mxCell id="mZgvwVBIC-NFh9PzwcEK-33" value="" style="line;strokeWidth=1;fillColor=none;align=left;verticalAlign=middle;spacingTop=-1;spacingLeft=3;spacingRight=3;rotatable=0;labelPosition=right;points=[];portConstraint=eastwest;strokeColor=inherit;" vertex="1" parent="mZgvwVBIC-NFh9PzwcEK-31">
          <mxGeometry y="70" width="190" height="20" as="geometry" />
        </mxCell>
        <mxCell id="mZgvwVBIC-NFh9PzwcEK-34" value="+ Setup() : void&lt;br style=&quot;border-color: var(--border-color);&quot;&gt;+ Update() : void" style="text;strokeColor=none;fillColor=none;align=left;verticalAlign=top;spacingLeft=4;spacingRight=4;overflow=hidden;rotatable=0;points=[[0,0.5],[1,0.5]];portConstraint=eastwest;whiteSpace=wrap;html=1;" vertex="1" parent="mZgvwVBIC-NFh9PzwcEK-31">
          <mxGeometry y="90" width="190" height="60" as="geometry" />
        </mxCell>
        <mxCell id="mZgvwVBIC-NFh9PzwcEK-37" value="Class StageSystem" style="swimlane;fontStyle=0;childLayout=stackLayout;horizontal=1;startSize=26;fillColor=none;horizontalStack=0;resizeParent=1;resizeParentMax=0;resizeLast=0;collapsible=1;marginBottom=0;whiteSpace=wrap;html=1;" vertex="1" parent="1">
          <mxGeometry x="270" y="410" width="290" height="140" as="geometry" />
        </mxCell>
        <mxCell id="mZgvwVBIC-NFh9PzwcEK-38" value="- currentStageIndex : int&lt;br&gt;- stagesDictionary : Dictionary&amp;lt;int, Stage&amp;gt;&lt;br&gt;" style="text;strokeColor=none;fillColor=none;align=left;verticalAlign=top;spacingLeft=4;spacingRight=4;overflow=hidden;rotatable=0;points=[[0,0.5],[1,0.5]];portConstraint=eastwest;whiteSpace=wrap;html=1;" vertex="1" parent="mZgvwVBIC-NFh9PzwcEK-37">
          <mxGeometry y="26" width="290" height="34" as="geometry" />
        </mxCell>
        <mxCell id="mZgvwVBIC-NFh9PzwcEK-39" value="" style="line;strokeWidth=1;fillColor=none;align=left;verticalAlign=middle;spacingTop=-1;spacingLeft=3;spacingRight=3;rotatable=0;labelPosition=right;points=[];portConstraint=eastwest;strokeColor=inherit;" vertex="1" parent="mZgvwVBIC-NFh9PzwcEK-37">
          <mxGeometry y="60" width="290" height="18" as="geometry" />
        </mxCell>
        <mxCell id="mZgvwVBIC-NFh9PzwcEK-40" value="+ CallSetup(Scene,LoadSceneMode) : void&lt;br&gt;+ Update() : void&lt;br&gt;+ AddList() : void" style="text;strokeColor=none;fillColor=none;align=left;verticalAlign=top;spacingLeft=4;spacingRight=4;overflow=hidden;rotatable=0;points=[[0,0.5],[1,0.5]];portConstraint=eastwest;whiteSpace=wrap;html=1;" vertex="1" parent="mZgvwVBIC-NFh9PzwcEK-37">
          <mxGeometry y="78" width="290" height="62" as="geometry" />
        </mxCell>
        <mxCell id="mZgvwVBIC-NFh9PzwcEK-42" style="edgeStyle=orthogonalEdgeStyle;rounded=0;orthogonalLoop=1;jettySize=auto;html=1;" edge="1" parent="1" source="mZgvwVBIC-NFh9PzwcEK-40" target="mZgvwVBIC-NFh9PzwcEK-34">
          <mxGeometry relative="1" as="geometry">
            <Array as="points">
              <mxPoint x="415" y="620" />
              <mxPoint x="750" y="620" />
              <mxPoint x="750" y="1030" />
            </Array>
          </mxGeometry>
        </mxCell>
        <mxCell id="mZgvwVBIC-NFh9PzwcEK-43" style="edgeStyle=orthogonalEdgeStyle;rounded=0;orthogonalLoop=1;jettySize=auto;html=1;exitX=0.49;exitY=1.032;exitDx=0;exitDy=0;exitPerimeter=0;entryX=0.511;entryY=1.017;entryDx=0;entryDy=0;entryPerimeter=0;" edge="1" parent="1" source="mZgvwVBIC-NFh9PzwcEK-40" target="mZgvwVBIC-NFh9PzwcEK-30">
          <mxGeometry relative="1" as="geometry">
            <mxPoint x="425" y="560" as="sourcePoint" />
            <mxPoint x="720" y="1040" as="targetPoint" />
            <Array as="points">
              <mxPoint x="415" y="552" />
              <mxPoint x="415" y="620" />
              <mxPoint x="750" y="620" />
              <mxPoint x="750" y="1100" />
              <mxPoint x="327" y="1100" />
            </Array>
          </mxGeometry>
        </mxCell>
        <mxCell id="mZgvwVBIC-NFh9PzwcEK-49" value="" style="endArrow=block;endSize=10;endFill=0;shadow=0;strokeWidth=1;rounded=0;edgeStyle=elbowEdgeStyle;elbow=vertical;entryX=0.502;entryY=1.003;entryDx=0;entryDy=0;entryPerimeter=0;exitX=0.5;exitY=0;exitDx=0;exitDy=0;" edge="1" parent="1" source="mZgvwVBIC-NFh9PzwcEK-17" target="mZgvwVBIC-NFh9PzwcEK-5">
          <mxGeometry width="160" relative="1" as="geometry">
            <mxPoint x="450" y="250" as="sourcePoint" />
            <mxPoint x="489" y="880" as="targetPoint" />
            <Array as="points">
              <mxPoint x="400" y="260" />
            </Array>
          </mxGeometry>
        </mxCell>
        <mxCell id="mZgvwVBIC-NFh9PzwcEK-50" style="edgeStyle=orthogonalEdgeStyle;rounded=0;orthogonalLoop=1;jettySize=auto;html=1;exitX=0;exitY=0.5;exitDx=0;exitDy=0;entryX=0;entryY=0.5;entryDx=0;entryDy=0;" edge="1" parent="1" source="mZgvwVBIC-NFh9PzwcEK-30" target="mZgvwVBIC-NFh9PzwcEK-18">
          <mxGeometry relative="1" as="geometry">
            <mxPoint x="230" y="350" as="targetPoint" />
            <Array as="points">
              <mxPoint x="100" y="1030" />
              <mxPoint x="100" y="338" />
            </Array>
          </mxGeometry>
        </mxCell>
      </root>
    </mxGraphModel>
  </diagram>
</mxfile>
